<svg xmlns="http://www.w3.org/2000/svg" viewBox="0 7.75 114.3499984741211 35.849998474121094" data-asc="0.825" width="114.3499984741211" height="35.849998474121094"><defs/><g fill="#da7896"><g transform="translate(0, 0)"><path d="M20.30 43.60Q12.40 43.60 9.55 38.20Q4.40 42.50 2.20 42.50Q1.15 42.50 0.58 41.50Q0 40.50 0 39.25Q0 36.25 2.30 32.25Q3.30 30.50 4.50 29.05Q5.70 27.60 7.20 27.60Q8.65 27.60 9.40 30L10.90 34.80Q11.70 33.95 12.68 32.73Q13.65 31.50 14.85 29.85L19.30 23.85Q27.50 13.20 30.05 12.20Q30.95 11.85 31.85 11.85Q32.85 11.85 33.48 12.27Q34.10 12.70 34.10 13.25Q34.10 14.15 32.65 14.30Q31.15 15.15 26.80 19.35Q24.80 21.30 23.58 22.57Q22.35 23.85 21.90 24.50Q16.30 32.30 11.55 36.50Q14.60 42.55 20.70 42.55Q23.00 42.55 25.38 41.58Q27.75 40.60 29.78 39Q31.80 37.40 33.05 35.42Q34.30 33.45 34.30 31.50Q34.30 29.45 32.85 27.80Q31.40 26.15 29.30 25.45Q29.30 25.45 28.55 25.35Q27.80 25.25 26.25 25.05Q23.90 24.75 23.90 24.10Q23.90 23.65 24.48 23.30Q25.05 22.95 25.65 22.95Q26.10 22.95 26.70 23.15Q27.30 23.35 27.78 23.52Q28.25 23.70 28.25 23.70Q28.65 23.75 29.15 23.77Q29.65 23.80 30.15 23.80Q33.45 23.80 36.15 22.75Q38.75 21.70 39.95 19.85Q41.15 18 41.15 15.55Q41.15 13.05 39.58 11.60Q38.00 10.15 35.43 9.52Q32.85 8.90 29.85 8.90Q24.00 8.90 18.73 10.60Q13.45 12.30 9.60 16.25Q6.65 19.30 6.65 21.35Q6.65 22.80 7.40 23.80Q7.60 24.05 7.85 24.30Q8.10 24.55 8.45 24.80Q8.70 24.95 8.15 24.95Q5.05 24.25 5.05 20.80Q5.05 17.35 8.55 14.30Q11.25 11.95 14.72 10.50Q18.20 9.05 22.08 8.40Q25.95 7.75 29.75 7.75Q32.45 7.75 34.95 8.15Q37.45 8.55 39.45 9.47Q41.45 10.40 42.63 11.90Q43.80 13.40 43.80 15.60Q43.80 18.70 42.15 20.55Q40.50 22.40 37.70 23.40Q34.40 24.55 30.60 24.60Q32.70 24.70 34.28 25.70Q35.85 26.70 36.73 28.30Q37.60 29.90 37.60 31.80Q37.60 34.35 36.08 36.52Q34.55 38.70 32 40.27Q29.45 41.85 26.40 42.73Q23.35 43.60 20.30 43.60M2.85 41.35Q4.45 41.35 9 36.80L8.85 36.60Q6.85 29.95 5.65 29.95Q5.60 29.95 5.40 30.05Q1.70 35.40 1.70 38.65Q1.70 39.35 1.98 40.35Q2.25 41.35 2.85 41.35ZM43.85 41.35Q42.40 41.35 41.15 40.63Q39.90 39.90 39.90 38.20Q39.90 35.85 41.58 32.60Q43.25 29.35 45.40 25.85Q51.25 16.35 53.70 16.35Q54.20 16.35 54.73 16.72Q55.25 17.10 55.30 17.55L51.80 22.25Q49.75 25 48.10 27.32Q46.45 29.65 45.25 31.50Q44.65 32.45 43.90 33.65Q43.15 34.85 42.58 36.13Q42.00 37.40 42.00 38.70Q42.00 39.30 42.35 39.77Q42.70 40.25 43.60 40.25Q45.20 40.25 47.80 38.52Q50.40 36.80 52.95 33.75Q53.20 33.45 53.50 33.20Q53.80 32.95 54.00 32.95Q54.25 32.95 54.25 33.25Q54.25 33.40 53.93 33.83Q53.60 34.25 53.40 34.50L52.20 35.85Q51.20 36.95 49.83 38.25Q48.45 39.55 46.93 40.45Q45.40 41.35 43.85 41.35ZM54.35 41.35Q53.10 41.35 52.40 40.17Q51.70 39 51.70 37.90Q51.70 34.90 56.05 29.50Q60.45 24.05 63.15 24.05Q65.70 24.05 65.70 26.75Q65.70 27.15 65.63 27.60Q65.55 28.05 65.45 28.55Q65.55 28.70 65.95 28.70Q67.30 28.70 69.15 27.75Q69.10 28.60 65.20 30.20Q65.75 31.85 61.90 36.50Q57.95 41.35 55.15 41.35L54.35 41.35M55.25 39.85Q57.40 39.85 60.75 35.90Q64 32.05 64 30.35Q63.20 29.90 62 28.05Q60.30 28.05 57.10 32.15Q53.95 36.15 54.05 38.30Q54.10 39.85 55.25 39.85ZM68.40 41.35Q67.15 41.35 66.45 40.17Q65.75 39 65.75 37.90Q65.75 34.90 70.10 29.50Q74.50 24.05 77.20 24.05Q79.75 24.05 79.75 26.75Q79.75 27.15 79.67 27.60Q79.60 28.05 79.50 28.55Q79.60 28.70 80 28.70Q81.35 28.70 83.20 27.75Q83.15 28.60 79.25 30.20Q79.80 31.85 75.95 36.50Q72 41.35 69.20 41.35L68.40 41.35M69.30 39.85Q71.45 39.85 74.80 35.90Q78.05 32.05 78.05 30.35Q77.25 29.90 76.05 28.05Q74.35 28.05 71.15 32.15Q68 36.15 68.10 38.30Q68.15 39.85 69.30 39.85ZM92.10 41.35Q90.90 41.35 90.90 40Q91.45 37.20 93.15 33.70Q93.95 32 94.78 30.35Q95.60 28.70 96.40 27Q94.55 28.25 92.70 29.77Q90.85 31.30 89.10 33.20Q87.05 35.40 84.35 38.85Q82.40 41.30 82.10 41.30Q81.40 41.30 80.95 40.65Q80.50 40 80.50 39.55Q80.50 38.90 81.65 36.20Q82 35.35 82.38 34.52Q82.75 33.70 83.10 32.90L80.10 36.05Q80 36.15 79.50 36.65Q79 37.15 78.70 37.15Q78.45 37.15 78.45 36.80Q78.45 36.70 78.52 36.52Q78.60 36.35 78.85 36.10Q79.60 35.35 80.40 34.50Q81.20 33.65 82.05 32.55Q82.70 31.70 83.92 30.02Q85.15 28.35 86.95 25.80Q87.50 25.05 88.50 25.05Q89.50 25.05 89.50 26Q89.50 26.35 86.95 30.65Q85.65 32.95 84.88 34.40Q84.10 35.85 83.90 36.55Q85 35.35 86.52 33.85Q88.05 32.35 90.05 30.50Q96.20 24.80 98.15 24.80Q98.70 24.80 99.22 25.15Q99.75 25.50 99.75 26.05Q99.75 26.30 97.80 29.70Q95.90 33.15 95.70 33.80Q101.25 29.15 101.25 29.10Q105.95 25.45 108 25.45Q108.60 25.45 109.13 25.82Q109.65 26.20 109.65 26.70Q109.65 26.80 106.45 30.90Q103.15 35.05 102.75 37.70Q102.55 39.50 104.60 39.50Q105.85 39.50 108.10 37.90Q110.35 36.30 112.80 33.50Q113.10 33.15 113.45 32.83Q113.80 32.50 114.05 32.50Q114.35 32.50 114.35 32.75Q114.35 33.10 113.90 33.55Q112.60 35.10 110.83 36.75Q109.05 38.40 107.30 39.52Q105.55 40.65 104.20 40.65Q100.80 40.65 100.80 37.50Q100.80 36.40 101.40 34.92Q102 33.45 102.60 32.25Q104.05 29.45 105.75 27.30Q104.15 28.10 102.42 29.40Q100.70 30.70 98.85 32.45Q94.55 36.65 92.95 40.95Q92.70 41.35 92.10 41.35Z"/></g></g></svg>